<svg width="19" height="18" viewBox="0 0 19 18" fill="none" xmlns="http://www.w3.org/2000/svg">
<path d="M16.8269 18L10.4539 11.7C9.94813 12.1 9.36647 12.4167 8.70895 12.65C8.05142 12.8833 7.35175 13 6.60992 13C4.77222 13 3.21692 12.3708 1.94402 11.1125C0.671119 9.85417 0.034668 8.31667 0.034668 6.5C0.034668 4.68333 0.671119 3.14583 1.94402 1.8875C3.21692 0.629167 4.77222 0 6.60992 0C8.44762 0 10.0029 0.629167 11.2758 1.8875C12.5487 3.14583 13.1852 4.68333 13.1852 6.5C13.1852 7.23333 13.0672 7.925 12.8311 8.575C12.5951 9.225 12.2748 9.8 11.8701 10.3L18.2431 16.6L16.8269 18ZM6.60992 11C7.8744 11 8.9492 10.5625 9.83433 9.6875C10.7195 8.8125 11.162 7.75 11.162 6.5C11.162 5.25 10.7195 4.1875 9.83433 3.3125C8.9492 2.4375 7.8744 2 6.60992 2C5.34545 2 4.27065 2.4375 3.38552 3.3125C2.50039 4.1875 2.05782 5.25 2.05782 6.5C2.05782 7.75 2.50039 8.8125 3.38552 9.6875C4.27065 10.5625 5.34545 11 6.60992 11Z" fill="#434343"/>
</svg>
